<svg width="120" height="120" viewBox="0 0 120 120" fill="none" xmlns="http://www.w3.org/2000/svg">
<rect width="120" height="120" rx="16" fill="white"/>
<path d="M107.473 24.7338L62.5959 106.175C61.6693 107.856 59.2888 107.866 58.3483 106.193L12.5809 24.7417C11.5563 22.9182 13.0927 20.7095 15.1288 21.0789L60.0544 29.2283C60.341 29.2803 60.6344 29.2798 60.921 29.2268L104.907 21.0905C106.936 20.7152 108.48 22.9068 107.473 24.7338Z" fill="url(#paint0_linear_15_2)"/>
<path d="M81.4548 10.3897L48.2441 16.9939C47.6983 17.1024 47.2941 17.5719 47.2612 18.1353L45.2183 53.151C45.1702 53.9757 45.9166 54.6158 46.7097 54.4302L55.9561 52.2646C56.8212 52.0621 57.6029 52.8354 57.4251 53.7183L54.678 67.3701C54.4931 68.2889 55.3431 69.0745 56.2273 68.802L61.9383 67.0411C62.8236 66.7683 63.6744 67.5562 63.487 68.4757L59.1214 89.9196C58.8483 91.2609 60.6063 91.9923 61.3395 90.8423L61.8292 90.0743L88.8912 35.2653C89.3444 34.3477 88.5629 33.3012 87.5697 33.4957L78.0522 35.3599C77.1578 35.5349 76.3968 34.6896 76.6492 33.8016L82.8612 11.9473C83.1139 11.0577 82.3502 10.2117 81.4548 10.3897Z" fill="url(#paint1_linear_15_2)"/>
<defs>
<linearGradient id="paint0_linear_15_2" x1="11.4635" y1="18.1683" x2="68.3895" y2="94.3471" gradientUnits="userSpaceOnUse">
<stop stop-color="#41D1FF"/>
<stop offset="1" stop-color="#BD34FE"/>
</linearGradient>
<linearGradient id="paint1_linear_15_2" x1="57.4758" y1="12.1827" x2="67.8753" y2="82.4783" gradientUnits="userSpaceOnUse">
<stop stop-color="#FFEA83"/>
<stop offset="0.0833333" stop-color="#FFDD35"/>
<stop offset="1" stop-color="#FFA800"/>
</linearGradient>
</defs>
</svg>
